<?xml version="1.0" encoding="UTF-8"?>
<!-- WhatsApp glyph (white) on transparent background -->
<svg xmlns="http://www.w3.org/2000/svg" viewBox="0 0 24 24" aria-hidden="true">
  <defs>
    <style>
      .w { fill: #ffffff; }
    </style>
  </defs>
  <!-- Simplified official glyph -->
  <path class="w" d="M17.472 14.382c-.297-.149-1.758-.867-2.03-.967-.273-.099-.472-.149-.671.15-.198.298-.768.967-.94 1.166-.173.199-.347.224-.644.075-.297-.149-1.256-.463-2.392-1.477-.883-.788-1.479-1.761-1.651-2.059-.173-.298-.018-.46.13-.609.134-.133.298-.347.446-.52.149-.174.198-.298.298-.497.099-.199.05-.373-.025-.522-.075-.149-.671-1.613-.92-2.208-.242-.579-.487-.5-.671-.51-.173-.009-.372-.011-.571-.011-.199 0-.522.075-.796.372-.273.298-1.044 1.02-1.044 2.486 0 1.466 1.07 2.883 1.219 3.082.149.199 2.11 3.219 5.105 4.509.714.308 1.27.492 1.704.628.716.227 1.367.195 1.883.118.575-.086 1.758-.718 2.006-1.412.248-.695.248-1.29.173-1.412-.074-.123-.272-.198-.57-.347zM12.003 3.999c-4.42 0-8.004 3.582-8.004 7.997 0 1.41.373 2.728 1.02 3.875l-1.078 3.94 4.044-1.064c1.11.607 2.377.957 3.997.957 4.42 0 8.004-3.582 8.004-7.997s-3.584-7.997-7.983-7.997h0zm0 1.5c3.589 0 6.5 2.908 6.5 6.497s-2.911 6.497-6.5 6.497c-1.314 0-2.541-.398-3.568-1.08l-.255-.167-2.39.63.636-2.324-.175-.269c-.723-1.12-1.148-2.443-1.148-3.787 0-3.589 2.911-6.497 6.5-6.497z"/>
</svg>